#!OML:ASF F:\VICON\USERDATA\INSTALL\rory3\rory3.ASF
:FULLY-SPECIFIED
:DEGREES
1810
root 0.442296 16.4494 -0.464056 -12.4703 27.9805 -0.64608
lowerback -0.108509 5.08809 0.414895
upperback 5.7243 6.68107 3.84811
thorax 5.58637 3.26958 4.08563
lowerneck 1.16459 -9.3884 -20.1703
upperneck 28.2148 -15.1331 14.7504
head 11.7593 -7.63674 7.35374
rclavicle 4.64659e-014 5.56597e-015
rhumerus 8.06185 -6.01792 -36.3697
rradius 88.1096
rwrist 13.9833
rhand -19.9243 13.2534
rfingers 7.12502
rthumb 6.41291 -16.6295
lclavicle 4.64659e-014 5.56597e-015
lhumerus 29.4618 25.659 12.0591
lradius 82.6702
lwrist 9.92248
lhand -12.5232 24.4108
lfingers 7.12502
lthumb 13.5528 53.9498
rfemur 6.46541 -11.1961 15.1696
rtibia 36.3179
rfoot -27.6147 -15.9081
rtoes -16.6512
lfemur -6.68135 -15.6363 -21.8607
ltibia 41.5506
lfoot -20.3228 -15.0704
ltoes -4.2233
1811
root 0.440111 16.4494 -0.450747 -12.5255 27.9703 -0.702036
lowerback -0.193124 5.22075 0.523265
upperback 5.72809 6.85352 3.84654
thorax 5.64108 3.35956 4.04149
lowerneck 1.06717 -9.3977 -20.0379
upperneck 28.4195 -15.1464 14.728
head 11.8492 -7.62393 7.32683
rclavicle 9.35282e-014 -3.26007e-014
rhumerus 8.44726 -6.3524 -36.6254
rradius 88.2713
rwrist 14.1896
rhand -20.0526 13.3194
rfingers 7.12502
rthumb 6.28907 -16.5672
lclavicle 9.35282e-014 -3.26007e-014
lhumerus 29.4143 25.4173 11.6308
lradius 82.8612
lwrist 10.1287
lhand -12.4067 24.4565
lfingers 7.12502
lthumb 13.665 53.9879
rfemur 6.58613 -11.1031 15.282
rtibia 36.2289
rfoot -27.5718 -15.9639
rtoes -16.2842
lfemur -6.65532 -15.5373 -21.7558
ltibia 41.6472
lfoot -20.4269 -15.1956
ltoes -4.19834
1812
root 0.43782 16.446 -0.443047 -12.5842 28.09 -0.691547
lowerback -0.165315 5.30408 0.590264
upperback 5.67704 6.96611 3.80478
thorax 5.57748 3.42102 3.95901
lowerneck 1.0559 -9.39418 -19.854
upperneck 28.6487 -15.1529 14.6736
head 11.9224 -7.60863 7.28468
rclavicle -7.17861e-014 3.57812e-014
rhumerus 8.88674 -6.67258 -36.9175
rradius 88.3874
rwrist 14.3098
rhand -20.0213 13.3463
rfingers 7.12502
rthumb 6.31928 -16.5394
lclavicle -7.17861e-014 3.57812e-014
lhumerus 29.3314 24.9953 11.2441
lradius 83.003
lwrist 10.3224
lhand -12.4693 24.2909
lfingers 7.12502
lthumb 13.6047 53.8264
rfemur 6.73306 -11.1462 15.2622
rtibia 36.1655
rfoot -27.4807 -16.0305
rtoes -16.937
lfemur -6.61023 -15.5543 -21.7823
ltibia 41.7146
lfoot -20.4713 -15.264
ltoes -3.98899
1813
root 0.431007 16.4396 -0.441823 -12.8273 28.421 -0.700195
lowerback 0.106425 5.28862 0.579604
upperback 5.64248 6.9536 3.80641
thorax 5.38522 3.41876 3.93244
lowerneck 1.18745 -9.36062 -19.7291
upperneck 28.7827 -15.1239 14.615
head 11.9261 -7.5902 7.25796
rclavicle -6.59717e-014 -3.89618e-014
rhumerus 9.36007 -6.91892 -37.1908
rradius 88.4899
rwrist 14.5028
rhand -20.1434 13.2549
rfingers 7.12502
rthumb 6.20137 -16.6344
lclavicle -6.59717e-014 -3.89618e-014
lhumerus 29.1906 24.4733 10.9371
lradius 83.1519
lwrist 10.4195
lhand -12.3945 24.157
lfingers 7.12502
lthumb 13.6768 53.6876
rfemur 7.06433 -11.2942 15.2025
rtibia 36.1366
rfoot -27.4783 -16.1932
rtoes -17.5369
lfemur -6.39871 -15.7641 -21.8808
ltibia 41.7373
lfoot -20.5016 -15.3174
ltoes -4.06245
1814
root 0.423982 16.4363 -0.4361 -12.9663 28.6824 -0.686993
lowerback 0.218165 5.28267 0.561255
upperback 5.59791 6.95136 3.76703
thorax 5.27717 3.41995 3.88543
lowerneck 1.3778 -9.31607 -19.5791
upperneck 28.8528 -15.1 14.612
head 11.8952 -7.5698 7.24896
rclavicle -1.53934e-013 -2.46493e-014
rhumerus 9.75956 -7.16501 -37.4178
rradius 88.6875
rwrist 14.5948
rhand -20.356 13.0277
rfingers 7.12502
rthumb 5.99613 -16.8674
lclavicle -1.53934e-013 -2.46493e-014
lhumerus 29.0223 23.85 10.5983
lradius 83.3043
lwrist 10.4229
lhand -12.2044 24.0596
lfingers 7.12502
lthumb 13.86 53.5777
rfemur 7.30407 -11.4192 15.1529
rtibia 36.1004
rfoot -27.6264 -16.2111
rtoes -17.3259
lfemur -6.25777 -15.9173 -21.9538
ltibia 41.7412
lfoot -20.5456 -15.3301
ltoes -4.3148
1815
root 0.418929 16.4349 -0.425421 -13.0557 28.8759 -0.647459
lowerback 0.180371 5.2752 0.543011
upperback 5.57254 6.94343 3.71447
thorax 5.27646 3.41623 3.84298
lowerneck 1.63486 -9.25505 -19.5348
upperneck 28.8136 -15.0638 14.6731
head 11.8202 -7.55383 7.28348
rclavicle -2.00623e-013 4.29375e-014
rhumerus 10.2519 -7.46504 -37.6653
rradius 88.8736
rwrist 14.7332
rhand -20.3872 13.1949
rfingers 7.12502
rthumb 5.96602 -16.7012
lclavicle -2.00623e-013 4.29375e-014
lhumerus 28.7918 23.1372 10.2252
lradius 83.423
lwrist 10.3948
lhand -12.0446 24.0143
lfingers 7.12502
lthumb 14.014 53.5218
rfemur 7.52078 -11.46 15.1212
rtibia 36.0424
rfoot -27.6647 -16.3114
rtoes -17.6072
lfemur -6.1207 -16.0075 -22.0301
ltibia 41.7197
lfoot -20.5242 -15.4388
ltoes -4.14189
1816
root 0.412153 16.4362 -0.416313 -13.1387 29.0518 -0.681157
lowerback 0.134522 5.29764 0.641037
upperback 5.53981 6.97297 3.63248
thorax 5.28798 3.43674 3.70875
lowerneck 1.758 -9.23472 -19.472
upperneck 28.8466 -15.0955 14.811
head 11.8216 -7.55445 7.33394
rclavicle 4.91992e-014 -8.74653e-015
rhumerus 10.6823 -7.82403 -37.8872
rradius 89.0613
rwrist 14.8312
rhand -20.2729 13.3349
rfingers 7.12502
rthumb 6.07636 -16.558
lclavicle 4.91992e-014 -8.74653e-015
lhumerus 28.7754 22.3535 10.0015
lradius 83.475
lwrist 10.2799
lhand -12.0344 24.03
lfingers 7.12502
lthumb 14.0238 53.5369
rfemur 7.69241 -11.4519 15.2068
rtibia 35.9678
rfoot -27.7421 -16.4266
rtoes -17.0262
lfemur -6.02733 -16.1083 -22.0084
ltibia 41.6721
lfoot -20.428 -15.6053
ltoes -3.73081
